<svg width="242" height="77" viewBox="0 0 242 77" fill="none" xmlns="http://www.w3.org/2000/svg">
<path d="M48.6749 42.5336C48.6749 54.3308 38.5498 63.8057 26.8456 63.8057C15.1413 63.8057 6.13086 54.2379 6.13086 42.5336C6.13086 30.8294 15.6057 21.2616 27.4029 21.2616C39.2001 21.2616 48.6749 30.7365 48.6749 42.5336Z" fill="#89B75E"/>
<path d="M26.8452 64.2702C14.9551 64.2702 5.66602 54.7024 5.66602 42.5337C5.66602 30.5507 15.4196 20.7972 27.4025 20.7972C39.3854 20.7972 49.139 30.5507 49.139 42.5337C49.139 48.3858 46.7238 53.9593 42.4509 57.9536C38.2708 62.0408 32.6973 64.2702 26.8452 64.2702ZM27.4025 21.7261C15.884 21.7261 6.59493 31.0152 6.59493 42.5337C6.59493 54.145 15.5125 63.3413 26.8452 63.3413C38.4565 63.3413 48.2101 53.8664 48.2101 42.5337C48.2101 31.0152 38.921 21.7261 27.4025 21.7261C27.4025 21.7261 27.4954 21.7261 27.4025 21.7261Z" fill="#000105"/>
<path d="M35.9487 60.3687C37.5279 60.1829 38.9212 59.0683 39.3857 57.4891C40.0359 54.6095 37.7137 52.2872 33.2549 51.9156C33.3478 53.1232 33.6264 54.3308 34.0909 55.5384C35.8558 56.4673 34.9269 59.3469 34.5554 59.7185C34.3696 59.9043 35.7629 60.4616 35.9487 60.3687Z" fill="#94948E"/>
<path d="M34.6488 52.1943C34.5559 52.2872 34.463 52.473 34.3701 52.6588C34.2772 52.8446 34.2772 53.1232 34.3701 53.309C34.2772 53.309 33.8127 53.5877 33.7198 53.309C33.627 52.8446 33.627 52.473 33.627 52.0085L34.6488 52.1943C34.463 52.1943 34.3701 52.1943 34.1843 52.1014Z" fill="#5E5E5E"/>
<path d="M27.9599 25.5346C27.9599 25.5346 24.7087 23.3981 27.6813 21.4474C27.867 22.0047 28.0528 22.5621 28.2386 23.1194C28.4244 22.2834 29.0746 21.7261 29.9106 21.6332C29.9106 21.6332 29.1675 23.5839 29.8177 23.8626C29.9106 23.3981 30.2822 23.1194 30.7467 23.0265C30.7467 23.0265 30.0035 22.4692 31.304 22.8408C31.304 22.8408 29.9106 24.327 30.1893 25.0701C30.1893 25.163 30.2822 25.163 30.2822 25.2559C29.5391 25.4417 28.7959 25.5346 27.9599 25.5346Z" fill="#94948E"/>
<path d="M37.3419 27.9498C37.3419 27.9498 37.8064 19.4038 46.5381 17.6389C46.5381 17.6389 45.7021 18.1033 45.5163 18.6607C48.6746 17.546 52.2045 18.1962 54.8054 20.3327C54.0623 20.054 53.3192 19.9611 52.576 19.9611C56.1059 22.3763 57.685 26.7422 56.7561 30.9223C56.7561 30.9223 56.7561 33.1517 56.2917 32.5014C56.1988 33.709 55.5485 34.8237 54.6196 35.5668C54.6196 35.5668 51.9258 42.0692 40.9647 39.3753C32.6045 37.5175 37.3419 27.9498 37.3419 27.9498Z" fill="#94948E"/>
<path opacity="0.4" d="M37.3418 28.0427C37.3418 28.0427 37.8062 19.4967 46.538 17.7318C46.538 17.7318 45.702 18.1962 45.5162 18.7536C48.6745 17.6389 52.2043 18.2891 54.8053 20.4256C54.0621 20.1469 53.319 20.054 52.5759 20.054C52.5759 20.054 59.8214 25.2559 56.1986 32.3156C56.1986 32.3156 56.1057 34.8237 54.5266 35.9384C54.5266 35.9384 52.0185 42.0692 41.0574 39.4682C32.6043 37.6104 37.3418 28.0427 37.3418 28.0427Z" fill="#5E5E5D"/>
<path d="M18.1138 28.1355C18.1138 28.1355 20.529 20.3327 14.4911 17.0815C14.7697 17.3602 14.8626 17.7318 14.8626 18.1962C14.8626 18.1962 10.7754 14.5735 7.15268 16.4313C7.15268 16.4313 8.73183 16.6171 8.91761 16.8957C8.91761 16.8957 1.95078 18.2891 1.48633 24.7915C1.48633 24.7915 1.48633 29.436 3.06547 30.4578C3.06547 30.4578 5.10908 34.4521 12.2617 35.7526C19.4143 37.0531 18.1138 28.1355 18.1138 28.1355Z" fill="#94948E"/>
<path d="M17.2782 26.7422C17.2782 26.7422 16.6279 20.8901 11.5189 19.4038L12.0763 20.8901C10.6829 20.7972 9.38244 21.2616 8.36064 22.1905C6.96728 23.1194 5.94548 24.6057 5.57391 26.2777C5.29524 27.4853 5.38813 32.873 11.6118 35.0095C17.8355 37.146 17.2782 26.7422 17.2782 26.7422Z" fill="#E1D4DD"/>
<path d="M16.8128 28.0426C16.8128 28.0426 16.8128 22.3763 11.2394 22.7479L11.7038 24.0483C11.2394 24.0483 10.7749 24.1412 10.4034 24.327C8.17397 25.3488 7.70952 28.1355 7.70952 28.5071C7.70952 28.5071 7.33795 32.873 12.2612 33.8948C12.9114 34.0806 13.6545 33.9877 14.3048 33.709C15.791 32.9659 17.6489 31.3867 16.8128 28.0426Z" fill="white"/>
<path d="M16.1629 28.5071C16.4415 26.7422 15.234 25.0701 13.469 24.7914C13.3761 24.7914 13.1904 24.7914 13.0975 24.7914C13.0975 24.7914 13.3761 25.2559 13.6548 25.8132C12.633 25.8132 11.6112 26.3706 11.0539 27.2066C10.2178 28.6929 10.7752 30.5507 12.2614 31.2938C12.7259 31.4796 13.1904 31.6654 13.6548 31.6654C14.305 31.944 16.1629 28.5071 16.1629 28.5071Z" fill="#5E5E5E"/>
<path d="M39.3849 30.0863C39.3849 30.0863 40.0352 24.2341 45.1442 22.7479L44.5868 24.2341C45.9802 24.1412 47.2807 24.6057 48.3025 25.5346C49.6958 26.4635 50.7176 27.9498 51.0892 29.6218C51.3679 30.8294 51.275 36.2171 45.0513 38.3536C38.8276 40.49 39.3849 30.0863 39.3849 30.0863Z" fill="#E1D4DD"/>
<path d="M39.8495 31.3868C39.8495 31.3868 39.8495 25.7204 45.423 26.092L44.9585 27.3924C45.423 27.3924 45.8874 27.4853 46.259 27.6711C48.4884 28.6929 48.9528 31.4796 48.9528 31.8512C48.9528 31.8512 49.3244 36.2171 44.4012 37.2389C43.7509 37.4247 43.0078 37.3318 42.3576 37.0531C40.8713 36.31 39.0135 34.7308 39.8495 31.3868Z" fill="white"/>
<path d="M40.5 31.8511C40.2213 30.0862 41.4289 28.4142 43.1938 28.1355C43.2867 28.1355 43.4725 28.1355 43.5654 28.1355C43.5654 28.1355 43.2867 28.6 43.008 29.1573C44.0298 29.1573 45.0516 29.7146 45.609 30.5507C46.445 32.0369 45.8876 33.8947 44.4014 34.6379C43.9369 34.8236 43.4725 35.0094 43.008 35.0094C42.3578 35.2881 40.5 31.8511 40.5 31.8511Z" fill="#5E5E5E"/>
<path d="M11.0545 41.2332C11.0545 41.2332 10.0327 49.4076 21.2725 50.4294C34.3701 51.6369 37.5284 52.0085 40.2222 48.7573C41.7085 46.9924 46.6317 32.5014 37.9928 27.3924C35.5777 26.3706 33.1625 25.6275 30.5616 25.2559C29.354 25.0701 29.1682 25.2559 28.0535 25.0701C22.0156 24.327 17.6497 25.6275 16.7208 26.5564C15.2346 28.2284 11.2402 37.4246 11.0545 41.2332Z" fill="#94948E"/>
<g opacity="0.4">
<path opacity="0.4" d="M18.9502 49.6863C32.0478 51.2654 37.5284 51.7299 40.2222 48.4787C41.7085 46.7138 48.0251 29.0645 34.463 26.092C34.463 26.092 43.2876 31.3868 39.6649 42.9981C36.5066 52.3801 18.9502 49.6863 18.9502 49.6863Z" fill="#5E5E5E"/>
</g>
<path d="M12.4472 46.1564C13.0975 47.8284 14.398 49.5934 22.851 50.6152C29.2605 51.4512 34.4624 51.4512 36.9705 49.6863C39.8501 47.5498 39.943 40.3972 35.3913 38.2607C30.8397 36.1242 21.0861 34.2664 15.1411 38.818C12.7259 40.5829 11.7041 43.927 12.4472 46.1564Z" fill="#DCD8CD"/>
<path d="M19.9716 35.8455C19.6929 36.8673 18.4853 37.3317 17.0919 36.9602C15.6986 36.5886 15.0483 35.9384 15.327 34.6379C15.6057 33.3374 16.9991 32.037 18.2995 32.3156C19.6 32.5943 20.2502 34.4521 19.9716 35.8455Z" fill="white"/>
<path d="M20.0643 36.1242C19.9714 36.7744 19.4141 37.2389 18.7639 37.2389C18.671 37.2389 18.5781 37.2389 18.4852 37.146C17.7421 36.8673 17.3705 36.1242 17.6492 35.3811C17.8349 34.7308 18.4852 34.2664 19.1354 34.4522C19.7857 34.7308 20.1572 35.3811 20.0643 36.1242Z" fill="#1F201E"/>
<path d="M32.4191 44.763C31.7689 47.4569 27.8675 47.7355 24.2447 46.8066C20.622 45.8777 15.4201 45.9706 17.3708 40.49C18.021 38.5393 21.7367 36.8673 25.4523 37.4246C30.2826 38.2607 33.0694 42.0692 32.4191 44.763Z" fill="#1F201E"/>
<path d="M37.0633 38.0749C36.6917 39.2825 35.2983 39.7469 33.7192 39.2825C32.14 38.818 31.3969 38.0749 31.8614 36.5886C32.3258 35.0095 33.8121 33.9877 35.4841 34.1735C37.0633 34.545 37.5277 36.4957 37.0633 38.0749Z" fill="white"/>
<path d="M34.7406 38.1677C34.6478 38.9109 33.9046 39.4682 33.0686 39.3753C32.9757 39.3753 32.8828 39.3753 32.7899 39.2824C31.9539 38.9109 31.5823 37.982 31.861 37.1459C32.1397 36.4028 32.8828 36.0312 33.626 36.217C34.462 36.4028 35.0193 37.2388 34.7406 38.1677C34.7406 38.0748 34.7406 38.0748 34.7406 38.1677Z" fill="#1F201E"/>
<path d="M48.2109 18.0104C53.5057 19.1251 52.7626 19.8683 53.0413 19.9611C53.4128 19.9611 53.8773 19.9611 54.2489 19.8683C51.6479 18.0104 51.3692 18.382 48.2109 18.0104Z" fill="#5E5E5D"/>
<path d="M21.6431 50.4294C21.2715 51.637 17.6487 58.1393 20.4355 63.1554C21.6431 63.6199 33.1615 63.527 33.1615 63.3412C33.1615 63.1555 35.5767 60.4616 35.4838 59.254C35.3909 58.0464 33.4402 52.1014 33.1615 51.1725C32.8829 51.7299 21.6431 50.4294 21.6431 50.4294Z" fill="#94948E"/>
<g opacity="0.9">
<path opacity="0.9" d="M21.7371 52.2872C21.7371 51.637 21.9229 51.0796 22.2016 50.5223C22.5732 50.0578 21.6443 50.4294 21.6443 50.4294L21.0869 52.2872L21.83 52.6588L21.7371 52.2872Z" fill="white"/>
</g>
<path d="M33.0699 51.3583C33.1627 51.5441 33.4414 52.473 33.4414 52.473L32.6054 52.3801C32.6054 52.3801 32.2338 51.4512 31.8623 51.3583C31.4907 51.2654 33.0699 51.3583 33.0699 51.3583Z" fill="#5E5E5D"/>
<path opacity="0.4" d="M19.9717 63.4341C19.9717 63.4341 23.0371 63.527 24.8949 63.7128C26.1025 63.8986 27.2172 63.9915 28.4248 63.8057C29.4466 63.6199 32.2333 63.8057 33.7195 62.9696C35.1129 60.4616 35.2987 57.3962 34.2769 54.7024C34.0911 53.6806 33.9053 52.9374 33.9053 52.9374C33.9053 52.9374 34.2769 52.7516 33.8124 57.1175C33.1622 61.855 27.6816 64.8275 19.9717 63.4341Z" fill="#5E5E5E"/>
<path d="M19.1354 35.7526C19.3919 35.7526 19.5998 35.5446 19.5998 35.2881C19.5998 35.0316 19.3919 34.8237 19.1354 34.8237C18.8788 34.8237 18.6709 35.0316 18.6709 35.2881C18.6709 35.5446 18.8788 35.7526 19.1354 35.7526Z" fill="white"/>
<path d="M33.441 37.6104C33.6975 37.6104 33.9055 37.4025 33.9055 37.146C33.9055 36.8895 33.6975 36.6815 33.441 36.6815C33.1845 36.6815 32.9766 36.8895 32.9766 37.146C32.9766 37.4025 33.1845 37.6104 33.441 37.6104Z" fill="white"/>
<path d="M53.6904 20.7042C54.9909 22.8407 55.8269 25.163 56.1985 27.5782C56.4772 29.9004 56.1056 32.3156 55.1767 34.4521C55.734 33.2445 56.2914 31.944 56.9416 30.7365L56.2914 24.2341L53.6904 20.7042Z" fill="#5D5D5C"/>
<path opacity="0.8" d="M15.2338 19.0323C13.5618 17.3602 11.3324 16.4313 9.0101 16.6171C4.9229 16.71 7.89541 16.1526 7.89541 16.1526L11.4253 15.874C11.4253 15.874 14.1191 17.4531 14.3049 17.546L14.9551 18.1962L15.2338 19.0323Z" fill="white"/>
<path d="M25.0805 63.9915C25.0805 63.527 26.1952 55.9099 25.5449 55.6313C24.8947 55.3526 19.2284 53.0303 19.3213 53.309C19.4141 53.5877 18.5781 62.5052 18.5781 62.5052L25.0805 63.9915Z" fill="#E7B34E"/>
<path d="M18.8575 62.1337C18.8575 62.1337 20.9011 61.855 20.9011 61.1119C20.9011 60.3687 18.7646 61.4834 18.7646 61.5763C18.7646 61.6692 18.8575 62.1337 18.8575 62.1337Z" fill="#8AA15E"/>
<path opacity="0.9" d="M21.5503 25.2559C21.5503 25.2559 17.0915 24.327 15.4195 28.3213C14.2119 30.8294 13.0972 33.3374 12.1683 35.9384C12.1683 35.9384 9.93889 42.5336 11.2394 44.3915C11.4251 42.8123 11.7038 41.2332 12.1683 39.654C14.3048 29.6218 16.8128 28.4142 17.1844 27.8569C18.1133 26.6493 18.4849 25.4417 21.5503 25.2559Z" fill="white"/>
<path d="M31.0251 23.0265C31.0251 23.0265 29.2602 24.1412 30.1891 25.2559H30.3749L31.0251 23.0265Z" fill="#5D5D5C"/>
<path opacity="0.8" d="M27.7741 25.163C27.7741 25.163 26.3807 23.1194 27.4954 21.6332C27.031 21.819 26.6594 22.1905 26.4736 22.655L26.8452 24.7915L27.7741 25.163Z" fill="white"/>
<path d="M32.512 51.6369C31.0258 51.6369 29.4466 51.544 27.9604 51.3583C22.8514 50.8938 18.8571 50.4294 18.6713 50.3365C15.8845 50.0578 13.3765 48.5715 11.7044 46.3422C10.0324 43.8341 9.84662 40.3042 11.24 35.9384C10.8684 35.8455 10.4969 35.7526 10.2182 35.5668C6.40966 34.2663 4.83051 33.709 2.41534 30.0862C0.557524 27.1137 0.650415 23.3981 2.60113 20.5185C3.71582 18.8464 5.29497 17.5459 7.24568 16.9886H7.15278L5.48075 16.617L7.05989 15.9668C8.08169 15.5023 9.19639 15.3166 10.3111 15.4095C11.4258 15.5023 12.4476 15.781 13.3765 16.3384L13.0978 15.8739L14.677 16.7099C15.6988 17.1744 16.6277 17.8246 17.3708 18.6606C18.6713 20.3327 19.3215 22.5621 19.1357 24.6986C21.458 24.4199 23.7803 24.327 26.1025 24.327C25.9168 23.9554 25.8239 23.491 25.8239 23.0265C26.0097 22.0976 26.6599 21.2616 27.4959 20.7971L28.4248 20.2398L28.239 21.3545V21.9118C28.7964 21.3545 29.5395 21.1687 30.2826 21.2616L31.3044 21.3545L30.6542 22.0976C30.4684 22.3763 30.2826 22.5621 30.1898 22.7478C30.5613 22.5621 31.0258 22.4692 31.3973 22.655L32.1405 22.8407L31.5831 23.3981C31.2116 23.7696 31.0258 24.2341 30.84 24.6986C32.8836 25.163 34.9272 25.7204 36.9708 26.3706C37.3424 24.6057 38.3642 20.9829 41.8011 18.8464C43.1945 17.9175 44.7736 17.4531 46.4457 17.2673L47.7462 17.1744L47.1888 17.6388C47.839 17.5459 48.3964 17.4531 49.0466 17.4531C51.276 17.5459 53.4125 18.382 55.0845 19.8682L56.5708 21.1687L54.6201 20.7042C54.5272 20.7042 54.4343 20.7042 54.3414 20.6113C55.7348 21.9118 56.7566 23.6768 57.1281 25.6275C57.4997 28.0426 57.3139 30.5507 56.6637 32.9659C55.7348 35.1023 54.2485 37.0531 52.4836 38.5393C49.2324 41.0474 45.1452 40.6758 43.3803 40.3042C43.3803 40.49 43.2874 40.5829 43.2874 40.7687C43.0087 43.091 42.3585 45.3204 41.3367 47.4568C40.1291 49.872 38.5499 51.6369 32.512 51.6369ZM9.19639 16.4313L10.5898 16.9886L9.19639 17.3602C9.1035 17.3602 9.1035 17.3602 9.0106 17.4531C7.9888 17.7317 5.01629 18.4749 3.53004 21.1687C1.76511 23.6768 1.67222 27.1137 3.34425 29.7147C5.57364 33.0587 6.87411 33.5232 10.6826 34.8237C11.1471 35.0095 11.6116 35.1023 12.1689 35.2881L12.912 34.4521L12.1689 36.3099C10.6826 40.5829 11.0542 43.5554 12.6334 45.8777C14.677 49.036 18.857 49.4076 18.857 49.4076C18.857 49.4076 22.9443 49.872 28.1461 50.4294C38.2713 51.4512 39.386 49.3147 40.5935 47.0853C41.5225 45.0417 42.1727 42.9052 42.4514 40.6758C42.5443 40.3971 42.5443 40.0256 42.6371 39.7469L42.73 39.1895L43.2874 39.2824C44.495 39.5611 48.768 40.3042 52.0191 37.7962C53.6912 36.4028 54.9916 34.6379 55.9206 32.6872C56.5708 30.4578 56.6637 28.1355 56.385 25.9061C56.0134 23.5839 54.6201 21.6332 52.5765 20.4256L50.9044 19.4967H52.7623C51.6476 18.8464 50.44 18.5677 49.1395 18.4749C48.0248 18.4749 46.8172 18.6606 45.7954 19.1251L43.6589 20.054L45.2381 18.382C44.2163 18.6606 43.2874 19.0322 42.4514 19.5895C38.9215 21.9118 38.1784 25.9061 37.9926 27.1137L37.8997 27.764L37.2495 27.4853C35.0201 26.6493 32.6049 25.999 30.2826 25.5346L29.9111 25.4417V24.4199L29.7253 24.7914L29.2608 24.0483C29.0751 23.491 29.0751 22.8407 29.2608 22.2834C28.8893 22.4692 28.6106 22.8407 28.5177 23.3052L28.1461 25.0701L28.4248 25.3488L27.1244 25.2559C24.3376 25.0701 21.458 25.2559 18.6713 25.7204L18.021 25.8132L18.1139 25.163C18.3926 23.0265 17.9281 20.89 16.6277 19.218C16.2561 18.7535 15.8845 18.382 15.4201 18.1033L15.513 19.5895L14.4912 18.5677C13.3765 17.2673 11.8902 16.5241 10.2182 16.4313H9.19639ZM27.403 22.1905C27.1243 22.3763 26.9386 22.7478 26.9386 23.1194C26.9386 23.6768 27.1243 24.1412 27.4959 24.5128L28.0533 25.0701L27.5888 23.3981C27.5888 23.3052 27.4959 22.7478 27.403 22.1905Z" fill="#141516"/>
<path d="M27.124 64.1773L27.7743 55.6313L35.0198 53.4948L34.2766 62.7839L27.124 64.1773Z" fill="#E7B34E"/>
<path d="M27.867 56.0029C27.867 56.0029 33.9978 54.2379 34.1836 55.1668C34.3694 56.0958 34.2765 58.2322 34.2765 58.2322L33.5334 62.2266C33.2547 62.5981 32.8831 62.8768 32.4187 63.0626C30.7467 63.4341 28.9817 63.8057 27.2168 63.9915V64.2702L34.2765 62.9697L35.1125 53.309L32.4187 54.0521L27.7741 55.6313L27.867 56.0029Z" fill="#CF9D49"/>
<path d="M28.146 47.6426C27.4958 47.6426 26.9384 47.5498 26.2882 47.4569C26.2882 47.4569 23.9659 47.0853 19.7858 46.1564C18.2067 45.7848 17.092 45.1346 16.6275 44.1128C16.1631 43.1839 16.1631 42.0692 16.5346 41.0474C16.9991 39.9327 18.9498 35.9384 24.8948 36.5886C29.5394 37.2389 31.4901 39.3754 32.3261 40.9545C33.1621 42.3479 33.255 44.0199 32.6977 45.5062C31.8616 47.2711 29.7252 47.6426 28.146 47.6426ZM17.6493 41.6047C17.4635 42.255 17.4635 42.9052 17.7422 43.4626C18.2996 44.2057 19.1356 44.763 20.0645 44.8559C24.2446 45.7848 26.5669 46.1564 26.5669 46.1564C27.6816 46.3422 30.8398 46.528 31.583 44.9488C31.9545 43.8341 31.8616 42.6265 31.2114 41.6047C30.4683 40.2114 28.7962 38.5393 24.709 37.8891C18.9498 37.2389 17.6493 41.5118 17.6493 41.6047Z" fill="#131415"/>
<path d="M18.0214 37.5175C17.5569 37.5175 17.0925 37.4246 16.628 37.3317C15.8849 37.146 15.2346 36.6815 14.956 36.0313C14.7702 35.0095 14.956 33.9877 15.4204 33.1516C15.9778 32.0369 17.0925 31.3867 18.3 31.4796C19.4147 31.6654 20.2507 33.2445 20.2507 33.2445C20.6223 34.1734 21.1797 36.217 19.2289 37.2388C18.8574 37.4246 18.4858 37.5175 18.0214 37.5175ZM19.1361 36.8673C21.1797 35.2881 19.4147 32.5943 18.3929 32.3156C17.464 32.1298 16.628 32.5014 16.0706 33.2445C15.4204 33.8948 15.1417 34.9166 15.4204 35.8455C15.6991 36.4957 16.1635 36.7744 17.0925 36.9602C17.7427 37.0531 18.4858 37.0531 19.1361 36.8673Z" fill="#1D1D1B"/>
<path d="M34.9268 39.6541C33.7192 39.6541 31.8614 39.4683 31.304 37.7962C31.0254 36.9602 31.7685 35.1024 32.5116 34.3593C33.3476 33.6161 34.4623 33.2446 35.577 33.5232C36.413 33.8019 37.1562 34.4522 37.4348 35.2882C37.4348 35.3811 38.3638 37.982 36.6917 39.2825C36.1344 39.5612 35.577 39.6541 34.9268 39.6541ZM36.5059 38.9109C37.5277 38.1678 37.7135 34.8237 35.2055 34.3593C34.2766 34.0806 33.2548 34.4522 32.6974 35.1953C32.0472 35.9384 31.6756 36.8673 31.7685 37.8891C31.8614 38.4465 32.3258 38.9109 32.8832 39.0038C34.1837 39.4683 35.2984 39.7469 36.5059 38.9109Z" fill="#141516"/>
<path d="M19.5068 53.7735C19.5068 53.7735 25.1732 55.6313 25.6376 56.746C26.1021 57.8607 25.9163 55.7242 25.8234 55.6313C25.7305 55.5384 19.5068 53.309 19.5068 53.309V53.7735Z" fill="#CF9D49"/>
<path d="M15.9766 31.6654C15.698 31.201 15.8837 30.5507 16.3482 30.2721C16.3482 30.2721 16.3482 30.2721 16.4411 30.2721C17.5558 29.9934 17.8345 30.7365 17.7416 30.7365C17.4629 30.5507 16.9984 30.5507 16.7198 30.7365C16.3482 30.9223 16.0695 31.201 15.9766 31.6654Z" fill="#1D1D1B"/>
<path d="M35.9483 32.873C35.8554 32.7801 36.5986 32.0369 37.3417 32.5014C38.1777 33.2445 37.6204 33.8948 37.6204 33.8948C37.5275 33.6161 37.4346 33.2445 37.1559 33.0587C36.7843 32.7801 36.4128 32.7801 35.9483 32.873Z" fill="#000105"/>
<path d="M38.179 32.873C37.9003 31.8512 36.9714 31.2938 35.9496 31.4796C35.8567 31.4796 35.7638 31.5725 35.6709 31.5725" fill="#94948E"/>
<path d="M26.474 49.6863C25.638 49.6863 24.8019 49.4076 24.1517 48.8502C24.0588 48.7574 24.0588 48.5716 24.1517 48.4787C24.2446 48.3858 24.4304 48.3858 24.5233 48.4787C25.1735 49.036 26.0095 49.2218 26.8455 49.1289C27.7744 48.9431 28.7034 48.5716 29.4465 48.0142C28.8891 48.8502 27.9602 49.5005 26.9384 49.6863H26.474Z" fill="#141516"/>
<path opacity="0.3" d="M18.393 43.4625C18.393 43.4625 17.3712 38.3535 22.2016 38.6322C18.6717 39.2825 18.393 43.4625 18.393 43.4625Z" fill="white"/>
<path d="M20.4359 25.0701L20.8074 22.2834L11.7041 17.3602L31.6757 12.2512L49.325 21.8189L39.0141 24.6057L38.7354 27.6711C38.7354 27.6711 36.8776 25.9061 29.9107 25.0701C23.5013 24.4199 20.4359 25.0701 20.4359 25.0701Z" fill="#1D1D1B"/>
<path d="M38.6433 28.1356C38.4575 28.1356 38.3646 28.0427 38.2718 27.9498C38.2718 27.9498 36.4139 26.2777 29.7258 25.5346C26.6604 25.0702 23.595 25.0702 20.5296 25.4417C20.3438 25.4417 20.2509 25.4417 20.0651 25.3488C19.9722 25.2559 19.8793 25.0702 19.8793 24.8844L20.158 22.4692L11.3334 17.7318C11.1476 17.6389 11.0547 17.4531 11.0547 17.2673C11.0547 17.0815 11.2405 16.8957 11.4263 16.8029L31.3978 11.6938H31.7694L49.4187 21.2616C49.6045 21.3545 49.6973 21.5403 49.6973 21.7261C49.6973 21.9119 49.5116 22.0976 49.3258 22.1905L39.3864 24.8844L39.1078 27.6711C39.1078 27.8569 39.0149 27.9498 38.8291 28.0427C38.7362 28.1356 38.7362 28.1356 38.6433 28.1356ZM24.2452 24.2341C26.103 24.2341 28.0537 24.327 29.9116 24.6057C34.7419 25.163 37.1571 26.1848 38.2718 26.7422L38.4575 24.5128C38.4575 24.327 38.6433 24.1412 38.8291 24.0484L47.9324 21.5403L31.5836 12.7156L13.0054 17.4531L20.994 21.819C21.1798 21.9119 21.2727 22.0976 21.2727 22.2834L20.994 24.4199C22.1087 24.2341 23.1305 24.2341 24.2452 24.2341Z" fill="#000105"/>
<path d="M38.6422 27.6711C38.6422 27.6711 39.1995 22.9336 39.1995 22.5621C33.6261 19.5896 27.1237 18.7535 20.9929 20.3327L20.4355 24.8844C23.6867 24.4199 26.9379 24.4199 30.1891 24.9772C33.1616 25.3488 36.0412 26.2777 38.6422 27.6711Z" fill="#555555"/>
<path d="M39.1073 28.4143L38.4571 28.1356C35.8562 26.8351 33.0694 25.9991 30.1898 25.5346C27.0315 24.9773 23.7803 24.9773 20.622 25.4417L19.8789 25.5346L20.622 19.9612L20.9007 19.8683C27.1244 18.2891 33.8126 19.1252 39.4789 22.1906L39.7576 22.2835V22.655C39.7576 23.0266 39.2002 27.764 39.2002 27.764L39.1073 28.4143ZM24.9879 24.0484C26.7528 24.0484 28.6107 24.2342 30.3756 24.5128C33.1623 24.9773 35.7633 25.8133 38.3642 26.928C38.4571 25.8133 38.7358 23.6768 38.8287 22.8408C33.5339 20.147 27.4031 19.4038 21.6438 20.7043L21.1794 24.3271C22.4799 24.1413 23.6874 24.0484 24.9879 24.0484Z" fill="#000105"/>
<path d="M18.6714 59.9971C17.0922 59.8114 15.6989 58.6967 15.2344 57.1175C14.5842 54.2379 16.5349 51.7298 20.9936 51.3583C21.0865 52.2872 20.9936 53.1232 20.9008 53.9592C20.8079 54.3308 19.3216 53.2161 19.2287 53.6806C18.6714 53.9592 19.5074 56.0028 19.2287 56.5602C18.6714 57.4891 18.4856 58.6038 18.6714 59.6256C18.7643 59.6256 18.8572 59.7185 18.8572 59.8114C18.8572 59.9043 18.7643 59.9971 18.6714 59.9971Z" fill="#94948E"/>
<path d="M19.7852 53.2161L24.6155 54.9811L27.0307 55.5384L35.1122 53.309C35.1122 53.309 32.3254 52.1943 32.2326 52.1943C32.1397 52.1943 26.6591 54.9811 26.6591 54.9811L24.0581 53.4948L20.0638 52.473L19.7852 53.2161Z" fill="white"/>
<path d="M19.8789 51.4512C19.9718 51.5441 20.0647 51.7298 20.1576 51.9156C20.2505 52.1014 20.2505 52.3801 20.1576 52.5659C20.2505 52.5659 20.7149 52.8445 20.8078 52.5659C20.9007 52.1014 20.9007 51.7298 20.9007 51.2654L19.8789 51.4512C20.0647 51.4512 20.1576 51.4512 20.3434 51.3583Z" fill="#5E5E5E"/>
<path d="M27.124 64.4559H26.1022C23.4084 64.363 20.8074 63.8057 18.3922 62.7839C18.2065 62.691 18.0207 62.5052 18.1136 62.3194L18.7638 53.0303C18.7638 52.8446 18.8567 52.7517 19.0425 52.6588C19.2283 52.5659 19.3212 52.5659 19.5069 52.6588C19.5998 52.6588 24.3373 54.7953 26.0093 55.0739C26.5667 55.1668 27.0311 55.1668 27.5885 55.0739C30.0965 54.5166 32.5117 53.7735 34.834 52.8446C34.9268 52.7517 35.1126 52.6588 35.2984 52.7517C35.4842 52.8446 35.67 53.0303 35.67 53.309L35.3913 62.7839C32.7904 63.8057 30.0036 64.363 27.124 64.4559ZM19.1354 61.9479C21.3648 62.7839 23.7799 63.3412 26.1951 63.4341C28.796 63.527 31.397 63.2484 33.8122 62.4123L34.5553 53.9593C33.8122 54.2379 33.069 54.5166 32.233 54.7024C30.7468 55.1668 29.2605 55.6313 27.7742 55.91C27.124 56.0029 26.4738 56.0029 25.8235 55.91C23.687 55.3526 21.6434 54.6095 19.6927 53.6806L19.1354 61.9479Z" fill="#000105"/>
<path d="M26.6601 55.3526L26.3815 55.0739C24.9881 54.0521 23.3161 53.4018 21.644 53.1232C20.9938 52.9374 20.2507 53.0303 19.6004 53.4018L18.9502 52.6587C19.7862 52.1014 20.808 51.9156 21.8298 52.1943C23.5947 52.5658 25.2668 53.2161 26.753 54.145C27.9606 53.4018 31.5834 51.4511 32.9767 51.9156C33.7199 52.1943 34.5559 52.4729 35.299 52.7516L34.9274 53.6805C34.9274 53.6805 33.0696 53.0303 32.6981 52.9374C31.862 52.6587 28.8895 54.145 26.9388 55.2597L26.6601 55.3526Z" fill="#000105"/>
<path d="M25.2666 63.8986L27.1244 63.9915L27.5889 55.7242C27.5889 55.7242 25.8239 55.5384 25.8239 55.7242L25.2666 63.8986Z" fill="#E7B34E"/>
<path d="M27.124 64.4559L25.2662 64.363C25.0804 64.363 24.9875 64.2701 24.8946 64.1773C24.8018 64.0844 24.8018 63.8986 24.8018 63.8057L25.3591 55.5384C25.3591 55.3526 25.452 55.2597 25.5449 55.1668C25.7307 55.0739 25.8236 54.8882 27.6814 55.0739C27.9601 55.0739 28.1458 55.3526 28.1458 55.6313L27.6814 63.9915C27.5885 64.1773 27.4027 64.4559 27.124 64.4559ZM25.8236 63.4341H26.6596L27.0311 56.0957H26.288L25.8236 63.4341Z" fill="#000105"/>
<path opacity="0.7" d="M15.6053 57.0246C15.9644 57.0246 16.2556 56.4008 16.2556 55.6313C16.2556 54.8617 15.9644 54.2379 15.6053 54.2379C15.2462 54.2379 14.9551 54.8617 14.9551 55.6313C14.9551 56.4008 15.2462 57.0246 15.6053 57.0246Z" fill="white"/>
<path d="M18.1139 61.0189C18.9499 61.4834 20.9936 61.6691 20.622 60.3687C20.5291 59.7184 18.95 59.6255 18.2997 59.7184C18.021 59.8113 17.2779 60.5545 18.1139 61.0189Z" fill="#94948E"/>
<path d="M19.1349 58.9754C19.5994 58.8825 20.1567 58.8825 20.6212 58.9754C20.6212 59.0682 20.8999 59.9972 20.807 59.9972C20.7141 59.9972 20.2496 60.6474 19.9709 60.5545C19.3207 60.3687 18.7634 60.2758 18.1131 60.1829C18.0202 60.09 17.4629 59.8114 17.4629 59.6256C17.4629 59.4398 17.5558 58.6967 17.6487 58.6967C17.7416 58.6967 18.1131 58.6038 18.1131 58.6967C18.4847 58.7896 18.7634 58.8825 19.1349 58.9754Z" fill="#94948E"/>
<path d="M19.1349 57.582C19.2278 57.1175 20.6212 57.8607 20.6212 57.9535C20.6212 58.0464 20.8999 58.9753 20.807 58.9753C20.7141 58.9753 20.2496 59.6256 19.9709 59.5327C19.6923 59.4398 18.2989 59.1611 18.1131 59.1611C17.9273 59.1611 17.4629 58.7896 17.4629 58.6038C17.4629 58.418 17.5558 57.6749 17.6487 57.6749C17.7416 57.6749 17.9273 56.9317 17.9273 57.0246L19.1349 57.582Z" fill="#94948E"/>
<path d="M18.3925 61.2048C18.3925 61.2048 18.2997 61.1119 18.2997 60.5545C18.2997 59.9972 17.7423 60.2758 17.6494 60.2758C17.6494 60.5545 17.7423 60.8332 17.8352 61.1119C17.9281 61.2048 18.3925 61.2048 18.3925 61.2048Z" fill="#94948E"/>
<path opacity="0.9" d="M18.3922 58.6037C18.3922 58.418 18.3922 58.2322 18.4851 58.0464C18.6709 57.8606 18.9495 57.6748 19.2282 57.6748C19.2282 57.6748 19.0424 57.5819 19.0424 57.6748C19.0424 57.7677 18.1135 57.7677 18.1135 57.7677L17.9277 58.5108L18.3922 58.6037Z" fill="white"/>
<path opacity="0.9" d="M18.3922 61.2047C18.2993 61.0189 18.2064 60.7403 18.2064 60.5545C18.2993 60.2758 17.649 60.4616 17.649 60.4616C17.649 60.4616 17.2775 61.3905 17.3704 61.3905C17.4633 61.3905 18.3922 61.2047 18.3922 61.2047Z" fill="white"/>
<path opacity="0.9" d="M18.2068 59.9042C18.1139 59.6255 18.1139 59.3469 18.2068 59.0682C18.3925 58.6037 17.6494 58.8824 17.6494 58.8824L17.9281 60.09L18.2068 59.9042Z" fill="white"/>
<path d="M19.8789 57.8606C20.1576 58.0464 20.2505 58.418 20.0647 58.6966C20.0647 58.7895 19.9718 58.7895 19.9718 58.8824C20.5291 59.4398 20.7149 58.1393 20.7149 58.1393C20.7149 58.1393 20.7149 57.7677 19.8789 57.8606Z" fill="#5E5E5D"/>
<path d="M19.8789 59.2541C20.1576 59.4399 20.2505 59.8114 20.0647 60.0901C20.0647 60.183 19.9718 60.183 19.9718 60.2759C20.5291 60.8332 20.7149 59.5327 20.7149 59.5327C20.7149 59.5327 20.7149 59.0683 19.8789 59.2541Z" fill="#5E5E5D"/>
<path d="M19.7857 60.5545C19.7857 60.5545 19.8786 60.9261 19.3213 61.3906C19.8786 61.855 20.6218 60.7403 20.6218 60.7403C20.6218 60.7403 20.5289 60.4616 19.7857 60.5545Z" fill="#5E5E5D"/>
<path d="M21.086 52.5659L20.25 52.473C20.3429 51.7299 20.6216 50.9867 21.086 50.4294L21.8291 50.6152C21.4576 51.1725 21.2718 51.8228 21.086 52.5659Z" fill="#000105"/>
<path d="M33.1627 52.7516C33.0698 52.2872 32.884 51.9156 32.6982 51.4512L33.6272 51.0796C33.6272 51.1725 34.0916 52.473 34.0916 52.473L33.1627 52.7516Z" fill="#000105"/>
<path d="M17.3711 60.09C17.2782 59.9972 14.3057 57.3962 14.3986 55.1668C15.0489 51.1725 20.5294 50.3365 20.8081 50.3365L21.0868 51.2654C20.9939 51.2654 15.6062 51.9156 15.0489 55.1668C14.956 56.5602 16.9996 58.8825 17.6498 59.3469L17.3711 60.09Z" fill="#000105"/>
<path d="M19.6934 59.7185C19.136 59.7185 18.5787 59.6256 18.0213 59.3469C17.5569 59.0683 17.3711 58.6038 17.3711 58.1393C17.464 57.582 17.8355 57.2104 18.3929 57.1175C19.2289 56.9318 20.0649 57.0247 20.8081 57.4891C20.9938 57.6749 21.1796 57.8607 21.1796 58.1393C21.3654 58.6038 21.1796 59.1611 20.8081 59.4398C20.5294 59.6256 20.0649 59.7185 19.6934 59.7185ZM19.136 57.9536H18.5787C18.5787 57.9536 18.3929 58.1393 18.3929 58.2322L18.5787 58.418C19.136 58.6967 19.7863 58.7896 20.3436 58.6038C20.3436 58.6038 20.4365 58.5109 20.3436 58.3251V58.2322C20.2507 58.0465 19.6934 57.9536 19.136 57.9536Z" fill="#000105"/>
<path d="M19.6937 61.019C19.0435 61.019 18.3932 60.8332 17.8359 60.5545C17.3714 60.2758 17.0928 59.8114 17.0928 59.3469C17.0928 58.8825 17.2786 58.418 17.743 58.1393L18.2075 58.9754C18.1146 58.9754 18.0217 59.254 18.1146 59.4398C18.2075 59.6256 18.2075 59.6256 18.3004 59.7185C18.8577 60.0901 19.6008 60.1829 20.2511 59.9043C20.4368 59.6256 20.4368 59.254 20.2511 58.9754L21.18 58.6038C21.3658 59.1611 21.3658 59.8114 21.0871 60.3687C20.9013 60.6474 20.6226 60.8332 20.2511 60.9261C20.0653 60.9261 19.8795 61.019 19.6937 61.019Z" fill="#000105"/>
<path d="M18.95 62.0407C18.2998 62.0407 17.1851 61.3905 17.0922 60.926C16.9993 60.4616 17.278 59.9971 17.6496 59.7184L18.114 60.1829L18.0211 60.09L18.114 60.1829C17.9282 60.2758 18.0211 60.7402 17.9282 60.8331C18.5785 61.2976 19.5074 61.2976 20.0647 60.7402C20.1576 60.6474 20.1576 60.4616 20.1576 60.3687L21.0865 60.1829C21.2723 60.6474 21.0865 61.2047 20.715 61.4834C20.2505 61.8549 19.6003 62.0407 18.95 62.0407Z" fill="#000105"/>
<path opacity="0.7" d="M39.0145 57.7677C39.3736 57.7677 39.6647 57.1439 39.6647 56.3744C39.6647 55.6048 39.3736 54.981 39.0145 54.981C38.6554 54.981 38.3643 55.6048 38.3643 56.3744C38.3643 57.1439 38.6554 57.7677 39.0145 57.7677Z" fill="white"/>
<path d="M35.4849 58.3251C35.392 57.8606 33.9987 58.6038 33.9987 58.6967C33.9987 58.7895 33.72 59.7184 33.8129 59.7184C33.9058 59.7184 33.72 62.1336 33.9987 62.0407C34.2774 61.9478 37.8072 62.9696 36.5067 59.9042C36.4138 59.8113 37.157 59.5327 37.157 59.3469C37.157 59.1611 37.0641 58.418 36.9712 58.418C36.8783 58.418 36.6925 57.6748 36.6925 57.7677L35.4849 58.3251Z" fill="#94948E"/>
<path opacity="0.9" d="M36.1338 59.3469C36.1338 59.1611 36.1338 58.9753 36.0409 58.7896C35.8551 58.6038 35.6693 58.5109 35.3906 58.5109C35.3906 58.5109 35.5764 58.418 35.5764 58.5109C35.5764 58.6038 36.5053 58.6038 36.5053 58.6038L36.6911 59.3469H36.1338Z" fill="#5D5D5C"/>
<path opacity="0.9" d="M35.5771 61.9479C35.67 61.7621 35.7629 61.4834 35.7629 61.2977C35.67 61.019 36.8776 61.2048 36.8776 61.2048C36.599 61.5763 36.3203 61.855 36.0416 62.1337C35.9487 62.2266 35.5771 61.9479 35.5771 61.9479Z" fill="#5D5D5C"/>
<path opacity="0.9" d="M36.3205 60.6474C36.4134 60.3687 36.4134 60.0901 36.3205 59.8114C36.2276 59.4398 36.9708 59.6256 36.9708 59.6256L36.6921 60.8332L36.3205 60.6474Z" fill="#5D5D5C"/>
<path d="M37.1563 60.6474L36.7847 60.0901C37.435 59.6256 39.6644 57.582 39.6644 56.1887C39.107 53.0304 33.2549 51.9157 33.2549 51.9157L33.3478 51.1725C33.6264 51.1725 39.5715 51.9157 40.2217 56.0958V56.1887C40.3146 58.5109 37.5279 60.4616 37.1563 60.6474Z" fill="#000105"/>
<path d="M34.9264 60.5545C34.462 60.5545 34.0904 60.4616 33.7189 60.1829C33.3473 59.8114 33.1615 59.254 33.3473 58.7896C33.3473 58.5109 33.5331 58.3251 33.7189 58.1393C34.462 57.7678 35.298 57.6749 36.134 57.7678C36.5985 57.8606 36.97 58.3251 37.0629 58.7896C37.1558 59.3469 36.8772 59.9042 36.4127 60.1829C35.9482 60.3687 35.4838 60.5545 34.9264 60.5545ZM35.4838 58.6967C34.9264 58.6967 34.3691 58.7896 34.2762 58.9753C34.1833 59.0682 34.1833 59.1611 34.1833 59.254C34.1833 59.3469 34.2762 59.4398 34.3691 59.4398C34.9264 59.6256 35.4838 59.6256 35.9482 59.3469C36.134 59.254 36.134 59.1611 36.134 59.0682C36.134 58.9753 36.134 58.6967 35.4838 58.6967Z" fill="#000105"/>
<path d="M34.9273 61.7621C34.7415 61.7621 34.4628 61.7621 34.277 61.6692C33.9984 61.5763 33.7197 61.3905 33.5339 61.1118C33.2552 60.5545 33.2552 59.9042 33.441 59.3469L34.3699 59.7185C34.1841 59.9971 34.1841 60.3687 34.3699 60.6474C34.4628 60.8332 35.5775 60.8332 36.3206 60.4616C36.4135 60.3687 36.5064 60.2758 36.5064 60.1829C36.5064 59.9971 36.5064 59.9042 36.4135 59.7185L36.878 58.8824C37.2495 59.1611 37.5282 59.6256 37.5282 60.09C37.5282 60.6474 37.2495 61.1118 36.7851 61.2976C36.2277 61.5763 35.5775 61.7621 34.9273 61.7621Z" fill="#000105"/>
<path d="M12.3547 35.9384L11.4258 35.6597C11.5187 35.2881 14.8627 25.4417 19.0428 24.7914L19.6931 25.5346C16.7206 25.9061 13.2836 33.2445 12.3547 35.9384Z" fill="#000105"/>
<path opacity="0.7" d="M21.6432 20.7043L21.1787 24.327L21.9218 24.2341C22.0147 23.0266 22.1076 21.7261 22.3863 20.5185C22.1076 20.5185 21.9218 20.5185 21.6432 20.7043Z" fill="white"/>
<path d="M26.8452 64.4559C15.3267 64.6417 5.8518 55.5384 5.66602 44.0199C5.66602 43.927 5.66602 43.7412 5.66602 43.6483H6.68782C6.68782 54.7952 15.6054 63.4341 26.9381 63.4341C38.5494 63.4341 48.2101 53.5877 48.2101 42.9052L49.139 42.5336C49.139 48.1071 46.9096 54.4237 42.6366 58.418C38.2708 62.2265 32.6973 64.363 26.8452 64.4559Z" fill="#000105"/>
<path d="M43.1021 40.3042C42.8235 40.3042 42.6377 40.2113 42.6377 39.9327C42.6377 39.8398 42.6377 39.8398 42.6377 39.7469C43.7524 31.4796 38.6434 28.2284 38.4576 28.1355C38.2718 28.0426 38.1789 27.6711 38.2718 27.4853C38.3647 27.2995 38.7362 27.2066 38.922 27.2995C39.2007 27.4853 44.7742 31.0151 43.5666 39.9327C43.5666 40.1185 43.2879 40.3042 43.1021 40.3042Z" fill="#141516"/>
<path d="M33.9055 63.1554C33.441 63.0625 33.6268 62.9696 33.5339 62.7839C33.2552 62.2265 33.2552 61.5763 33.441 61.0189L34.3699 61.3905C34.1841 61.6692 34.1841 62.0407 34.3699 62.3194C34.4628 62.5052 36.4135 61.3905 36.4135 61.3905C35.5775 62.0407 34.7415 62.5981 33.9055 63.1554Z" fill="#000105"/>
<path d="M76.8921 35.3223C77.2637 35.3223 77.3566 35.6009 77.1708 35.9725L72.2476 42.8464L77.3566 50.1848C77.6352 50.5564 77.5424 50.928 77.1708 50.928H73.7338C73.3623 50.928 73.1765 50.8351 72.9907 50.5564L69.2751 44.89H68.5319V50.5564C68.5319 50.7422 68.3461 50.928 68.1604 50.928H65.2807C65.095 50.928 64.9092 50.7422 64.9092 50.5564V35.7867C64.9092 35.6009 65.095 35.4152 65.2807 35.4152H68.1604C68.3461 35.4152 68.5319 35.6009 68.5319 35.7867V41.2673H69.2751L72.9907 35.7867C73.1765 35.508 73.3623 35.4152 73.7338 35.4152H76.8921V35.3223Z" fill="#0C0C0C"/>
<path d="M87.2949 51.1127C83.2077 51.1127 79.585 47.9545 79.585 43.1241C79.585 38.2938 83.1148 35.1355 87.2949 35.1355C91.3821 35.1355 95.0049 38.2938 95.0049 43.1241C95.0049 48.0473 91.3821 51.1127 87.2949 51.1127ZM87.2949 38.944C85.0655 38.944 83.4864 40.709 83.4864 43.217C83.4864 45.7251 85.0655 47.3971 87.2949 47.3971C89.5243 47.3971 91.1034 45.6322 91.1034 43.217C91.1034 40.709 89.5243 38.944 87.2949 38.944Z" fill="#0C0C0C"/>
<path d="M110.147 50.4625C110.147 50.6483 109.961 50.8341 109.775 50.8341H106.896C106.71 50.8341 106.524 50.6483 106.524 50.4625V46.4682H101.972V50.4625C101.972 50.6483 101.787 50.8341 101.601 50.8341H98.7212C98.5354 50.8341 98.3496 50.6483 98.3496 50.4625V41.4521C98.3496 39.5943 99.0927 37.5507 100.579 36.3431C101.508 35.6 102.715 35.1355 104.295 35.1355C105.874 35.1355 107.081 35.6 108.01 36.3431C109.589 37.6436 110.24 39.5943 110.24 41.4521V50.4625H110.147ZM102.715 39.5014C102.344 39.9658 101.972 40.6161 101.972 41.7308V42.9383H106.524V41.7308C106.524 40.6161 106.245 39.9658 105.781 39.5014C105.316 39.0369 104.759 38.944 104.202 38.944C103.737 38.944 103.18 39.0369 102.715 39.5014Z" fill="#0C0C0C"/>
<path d="M115.813 50.927H113.584C113.212 50.927 112.934 50.6483 113.305 50.091C114.048 48.7905 114.513 47.49 114.792 46.0038C115.07 44.4246 115.163 42.6597 115.163 40.5232V35.8786C115.163 35.6929 115.349 35.5071 115.535 35.5071H126.031C126.217 35.5071 126.403 35.6929 126.403 35.8786V50.5554C126.403 50.7412 126.217 50.927 126.031 50.927H123.152C122.966 50.927 122.78 50.7412 122.78 50.5554V38.944H118.879V40.4303C118.879 42.1952 118.693 44.4246 118.321 46.2824C118.043 47.6758 117.3 49.5336 116.742 50.3696C116.464 50.8341 116.278 50.927 115.813 50.927Z" fill="#0C0C0C"/>
<path d="M139.5 42.5668L134.019 48.6976V50.4625C134.019 50.6483 133.833 50.8341 133.648 50.8341H130.768C130.582 50.8341 130.396 50.6483 130.396 50.4625V35.7857C130.396 35.6 130.582 35.4142 130.768 35.4142H133.648C133.833 35.4142 134.019 35.6 134.019 35.7857V43.7744L139.5 37.7365V35.7857C139.5 35.6 139.686 35.4142 139.871 35.4142H142.751C142.937 35.4142 143.123 35.6 143.123 35.7857V50.4625C143.123 50.6483 142.937 50.8341 142.751 50.8341H139.871C139.686 50.8341 139.5 50.6483 139.5 50.4625V42.5668Z" fill="#0C0C0C"/>
<path d="M147.117 50.4625V35.7857C147.117 35.6 147.303 35.4142 147.489 35.4142H150.368C150.554 35.4142 150.74 35.6 150.74 35.7857V47.3971H155.849V35.7857C155.849 35.6 156.035 35.4142 156.221 35.4142H159.1C159.286 35.4142 159.472 35.6 159.472 35.7857V47.3971H162.723C162.909 47.3971 163.094 47.5829 163.094 47.7687V50.4625C163.094 50.7412 162.909 50.927 162.63 50.927H159.379H147.396C147.21 50.927 147.117 50.7412 147.117 50.4625Z" fill="#0C0C0C"/>
<path d="M175.171 42.5668L169.69 48.6976V50.4625C169.69 50.6483 169.504 50.8341 169.319 50.8341H166.439C166.253 50.8341 166.067 50.6483 166.067 50.4625V35.7857C166.067 35.6 166.253 35.4142 166.439 35.4142H169.319C169.504 35.4142 169.69 35.6 169.69 35.7857V43.7744L175.171 37.7365V35.7857C175.171 35.6 175.356 35.4142 175.542 35.4142H178.422C178.608 35.4142 178.793 35.6 178.793 35.7857V50.4625C178.793 50.6483 178.608 50.8341 178.422 50.8341H175.542C175.356 50.8341 175.171 50.6483 175.171 50.4625V42.5668Z" fill="#0C0C0C"/>
<path d="M182.23 40.5232C182.23 38.8511 182.787 37.3649 183.902 36.436C184.831 35.6 186.131 35.3213 187.525 35.3213H193.841C194.027 35.3213 194.213 35.5071 194.213 35.6929V50.3696C194.213 50.5554 194.027 50.7412 193.841 50.7412H190.962C190.776 50.7412 190.59 50.5554 190.59 50.3696V45.7251H188.361L186.131 50.3696C185.946 50.7412 185.76 50.7412 185.388 50.7412H182.137C181.951 50.7412 181.766 50.6483 181.766 50.4625C181.766 50.3696 181.766 50.1838 181.859 50.091L184.552 44.982C184.274 44.7962 183.995 44.6104 183.716 44.3317C182.695 43.3099 182.23 41.9166 182.23 40.5232ZM187.804 38.7583C187.339 38.7583 186.875 38.8511 186.596 39.1298C186.224 39.4085 186.039 39.8729 186.039 40.6161C186.039 41.3592 186.317 41.8237 186.689 42.1023C187.06 42.2881 187.432 42.4739 187.896 42.4739H190.59V38.7583H187.804Z" fill="#0C0C0C"/>
</svg>
