<svg width="254" height="48" viewBox="0 0 254 48" fill="none" xmlns="http://www.w3.org/2000/svg">
<path d="M99.8092 29.6829H94.5753V14.2612H89.8714V29.6829H84.6376V14.2612H80V33.6036H104.447V14.2612H99.8092V29.6829Z" fill="black"/>
<path d="M143.535 15.2416C142.144 14.3921 140.355 14 138.301 14C136.181 14 134.392 14.3921 133.001 15.2416C131.61 16.0257 130.55 17.2019 129.887 18.7049C129.225 20.1425 128.894 21.9068 128.894 23.8672C128.894 25.8276 129.225 27.5919 129.887 29.0949C130.55 30.5978 131.61 31.7741 133.001 32.6236C134.392 33.4731 136.181 33.8651 138.235 33.8651C140.355 33.8651 142.144 33.4731 143.469 32.6236C144.86 31.7741 145.854 30.5978 146.516 29.1602C147.179 27.6573 147.51 25.9583 147.51 23.9326C147.51 21.9722 147.179 20.2079 146.516 18.7702C145.92 17.2673 144.926 16.0911 143.535 15.2416ZM142.74 23.9326C142.74 25.8276 142.409 27.3306 141.68 28.3761C141.018 29.4216 139.891 29.879 138.301 29.879C136.711 29.879 135.651 29.3563 134.922 28.3761C134.194 27.3306 133.862 25.8276 133.862 23.9326C133.862 22.0375 134.194 20.5346 134.922 19.489C135.585 18.4435 136.711 17.9208 138.301 17.9208C139.891 17.9208 141.018 18.4435 141.68 19.4237C142.343 20.5346 142.74 22.0375 142.74 23.9326Z" fill="black"/>
<path d="M152.943 28.3759C152.81 29.0947 152.148 29.6175 151.419 29.6175H149.63V33.5383H153.009C154.996 33.5383 156.719 32.166 157.05 30.2056L159.303 18.182H163.344V33.6036H167.982V14.2612H155.593L152.943 28.3759Z" fill="black"/>
<path d="M207.07 15.2416C205.679 14.3921 203.956 14 201.836 14C199.716 14 197.927 14.3921 196.536 15.2416C195.145 16.0257 194.085 17.2019 193.422 18.7049C192.76 20.1425 192.428 21.9068 192.428 23.8672C192.428 25.8276 192.76 27.5919 193.422 29.0949C194.085 30.5978 195.145 31.7741 196.536 32.6236C197.927 33.4731 199.716 33.8651 201.77 33.8651C203.89 33.8651 205.679 33.4731 207.004 32.6236C208.395 31.7741 209.389 30.5978 210.051 29.1602C210.714 27.6573 211.045 25.9583 211.045 23.9326C211.045 21.9722 210.714 20.2079 210.051 18.7702C209.521 17.2673 208.461 16.0911 207.07 15.2416ZM206.275 23.9326C206.275 25.8276 205.944 27.3306 205.215 28.3761C204.552 29.4216 203.426 29.879 201.836 29.879C200.246 29.879 199.186 29.3563 198.457 28.3761C197.729 27.3306 197.397 25.8276 197.397 23.9326C197.397 22.0375 197.729 20.5346 198.457 19.489C199.186 18.4435 200.246 17.9861 201.836 17.9861C203.426 17.9861 204.552 18.5089 205.215 19.489C205.944 20.5346 206.275 22.0375 206.275 23.9326Z" fill="black"/>
<path d="M228.337 23.8671C228.072 23.671 227.74 23.5403 227.409 23.4096C228.005 23.1483 228.469 22.7562 228.867 22.2334C229.397 21.4493 229.662 20.4691 229.662 19.3582C229.662 17.4632 228.933 16.1563 227.541 15.3721C226.216 14.6533 224.229 14.2612 221.645 14.2612H215.417V33.6036H222.838C225.09 33.6036 226.813 33.0808 228.138 32.1006C229.463 31.0551 230.125 29.6829 230.125 27.8532C230.125 26.8076 229.993 25.9581 229.662 25.37C229.33 24.7166 228.933 24.1938 228.337 23.8671ZM220.188 25.5007H222.374C223.566 25.5007 224.361 25.6968 224.759 26.0888C225.156 26.4156 225.355 26.9383 225.355 27.5264C225.355 28.1799 225.156 28.768 224.759 29.1601C224.361 29.5522 223.566 29.7482 222.506 29.7482H220.188V25.5007ZM224.361 21.1879C223.964 21.5146 223.235 21.6453 222.175 21.6453H220.188V18.182H221.976C223.036 18.182 223.831 18.3127 224.295 18.5741C224.693 18.8354 224.958 19.2275 224.958 19.8156C224.958 20.4691 224.759 20.9265 224.361 21.1879Z" fill="black"/>
<path d="M252.121 18.7698C251.459 17.2669 250.399 16.0907 249.074 15.3065C247.682 14.457 245.96 14.0649 243.84 14.0649C241.72 14.0649 239.931 14.457 238.54 15.3065C237.148 16.0907 236.088 17.2669 235.426 18.7698C234.763 20.2074 234.432 21.9718 234.432 23.9322C234.432 25.8925 234.763 27.6569 235.426 29.1598C236.088 30.6628 237.148 31.839 238.54 32.6885C239.931 33.538 241.72 33.9301 243.774 33.9301C245.894 33.9301 247.682 33.538 249.007 32.6885C250.399 31.839 251.392 30.6628 252.055 29.2252C252.717 27.7222 253.049 26.0232 253.049 23.9975C253.115 21.9718 252.784 20.2074 252.121 18.7698ZM248.212 23.9322C248.212 25.8272 247.881 27.3301 247.152 28.3757C246.49 29.4212 245.364 29.8786 243.774 29.8786C242.184 29.8786 241.124 29.3559 240.395 28.3757C239.666 27.3301 239.335 25.8272 239.335 23.9322C239.335 22.0371 239.666 20.5342 240.395 19.4886C241.124 18.4431 242.184 17.9857 243.774 17.9857C245.364 17.9857 246.49 18.5085 247.152 19.4886C247.881 20.5342 248.212 22.0371 248.212 23.9322Z" fill="black"/>
<path d="M126.376 14.2612H121.672L117.564 21.6453H114.517V14.2612H109.813V33.6036H114.517V26.2195H117.829L122.136 33.6036H127.502L121.341 23.5403L126.376 14.2612Z" fill="black"/>
<path d="M189.911 14.2612H185.207L181.1 21.6453H177.986V14.2612H173.348V33.6036H177.986V26.2195H181.365L185.671 33.6036H191.037L184.876 23.5403L189.911 14.2612Z" fill="black"/>
<g opacity="0.4">
<path opacity="0.6" d="M17.6551 25.0318L9.48927 33.1457L14.8554 38.46L22.9952 30.372L17.6551 25.0318Z" fill="black"/>
</g>
<path opacity="0.2" d="M14.3625 21.7397L2.98218 33.1201L9.48895 33.146L17.6548 25.032L14.3625 21.7397Z" fill="black"/>
<path opacity="0.6" d="M14.8806 45.0188L26.261 33.6385L22.9947 30.3721L14.8547 38.4602L14.8806 45.0188Z" fill="black"/>
<path d="M2.9812 39.0825L2.95528 45.019L8.89174 45.0449L2.9812 39.0825Z" fill="black"/>
<path fill-rule="evenodd" clip-rule="evenodd" d="M35.3858 20.366L27.6347 12.6149C26.494 11.4743 24.6275 11.4743 23.4869 12.6149L14.3619 21.7399L26.2607 33.6388L35.3858 24.5137C36.5264 23.3731 36.5264 21.5066 35.3858 20.366ZM23.7202 24.2545L23.6943 18.318L29.6567 24.2804L23.7202 24.2545Z" fill="#0399E9"/>
<path d="M47.9844 1.85619L46.1438 0.015625L39.974 6.18539L41.8146 8.02595L47.9844 1.85619Z" fill="#0399E9"/>
<path d="M47.9588 43.2039L41.7891 37.0342L39.9485 38.8747L46.1183 45.0445L47.9588 43.2039Z" fill="#0399E9"/>
<path d="M10.9405 6.18539L4.77075 0.015625L2.93019 1.85618L9.09996 8.02595L10.9405 6.18539Z" fill="#0399E9"/>
<path d="M23.756 6.67236H26.3589V8.63623e-05H23.756V6.67236Z" fill="#0399E9"/>
<path d="M41.312 21.6378V24.2407H47.9843V21.6378H41.312Z" fill="#0399E9"/>
</svg>
