<svg width="201" height="153" viewBox="0 0 201 153" fill="none" xmlns="http://www.w3.org/2000/svg">
<path d="M100.5 0.921143L67.621 20.0934L100.5 44.0482L133.379 20.0934L100.5 0.921143Z" fill="#333333"/>
<path d="M114.975 24.833C114.463 21.5024 108.186 18.855 100.5 18.855C92.814 18.855 86.4944 21.5024 86.0247 24.833H85.982V25.26V46.61H115.018V25.26L114.975 24.833Z" fill="#535353"/>
<path d="M114.847 35.3372C133.379 43.5356 135.941 66.5936 135.941 66.5936L100.5 78.208L65.059 66.6363C65.059 66.6363 67.5783 43.7491 85.9393 35.4653C92.0881 31.0672 99.6887 27.4377 106.478 29.3592C104.428 30.0424 103.404 31.7504 103.404 31.7504C103.404 31.7504 105.795 31.4088 108.869 32.092C111.944 32.7752 115.018 35.1664 115.018 35.1664C115.018 35.1664 114.975 35.2518 114.847 35.3372Z" fill="#FF732B"/>
<path d="M65.059 66.679L100.5 78.2934L135.941 66.679V73.1694L100.5 94.007L65.059 73.1694V66.679Z" fill="#FFDDCD"/>
<path d="M65.059 66.679C65.059 66.679 65.059 37.216 65.059 18.001C82.3525 18.001 89.825 33.0741 89.825 33.0741L65.059 66.679Z" fill="#FF732B"/>
<path d="M69.756 55.15C69.756 49.3428 69.756 38.7959 69.756 23.125C78.723 23.125 85.982 35.3799 85.982 35.3799C85.982 35.3799 87.69 39.1375 85.982 40.1623C84.274 41.1871 82.1817 39.8207 80.4737 36.0631C77.6982 38.4543 77.5274 47.6348 77.5274 47.6348C77.5274 47.6348 76.6734 45.2436 77.015 42.1692C71.6348 44.2615 71.7202 50.7946 69.756 55.15Z" fill="#FFDDCD"/>
<path d="M135.941 66.679C135.941 66.679 135.941 37.216 135.941 18.001C118.647 18.001 111.175 33.0741 111.175 33.0741L135.941 66.679Z" fill="#FF732B"/>
<path d="M131.244 55.15C131.244 49.3428 131.244 38.7959 131.244 23.125C122.277 23.125 115.018 35.3799 115.018 35.3799C115.018 35.3799 125.394 42.2119 131.244 55.15Z" fill="#FFDDCD"/>
<path d="M84.701 67.1059C88.4586 67.1059 91.533 64.0315 91.533 60.2739C91.533 56.5163 88.4586 53.4419 84.701 53.4419C80.9434 53.4419 77.869 56.5163 77.869 60.2739C77.869 64.0315 80.9434 67.1059 84.701 67.1059Z" fill="white"/>
<path d="M117.58 67.1059C121.338 67.1059 124.412 64.0315 124.412 60.2739C124.412 56.5163 121.338 53.4419 117.58 53.4419C113.822 53.4419 110.748 56.5163 110.748 60.2739C110.748 64.0315 113.822 67.1059 117.58 67.1059Z" fill="white"/>
<path d="M84.701 63.6899C86.5798 63.6899 88.117 62.1527 88.117 60.2739C88.117 58.3951 86.5798 56.8579 84.701 56.8579C82.8222 56.8579 81.285 58.3951 81.285 60.2739C81.285 62.1527 82.8222 63.6899 84.701 63.6899Z" fill="#333333"/>
<path d="M117.58 63.6899C119.459 63.6899 120.996 62.1527 120.996 60.2739C120.996 58.3951 119.459 56.8579 117.58 56.8579C115.701 56.8579 114.164 58.3951 114.164 60.2739C114.164 62.1527 115.701 63.6899 117.58 63.6899Z" fill="#333333"/>
<path d="M110.748 50.0261C112.627 50.0261 114.164 49.1721 114.164 48.1046C114.164 47.0371 112.627 46.1831 110.748 46.1831C108.869 46.1831 107.332 47.0371 107.332 48.1046C107.332 49.1721 108.869 50.0261 110.748 50.0261Z" fill="#ED4D14"/>
<path d="M90.252 50.0261C92.1308 50.0261 93.668 49.1721 93.668 48.1046C93.668 47.0371 92.1308 46.1831 90.252 46.1831C88.3732 46.1831 86.836 47.0371 86.836 48.1046C86.836 49.1721 88.3732 50.0261 90.252 50.0261Z" fill="#ED4D14"/>
<path d="M87.69 8.3935V20.136H91.533V6.1731L87.69 8.3935Z" fill="#48A1E6"/>
<path d="M89.6115 23.552C91.8319 23.552 93.668 21.7159 93.668 19.4955C93.668 17.2751 91.8319 15.439 89.6115 15.439C87.3911 15.439 85.555 17.2751 85.555 19.4955C85.555 21.7159 87.3911 23.552 89.6115 23.552Z" fill="#48A1E6"/>
<path d="M101.354 81.9229C103.532 81.3251 105.197 78.5496 105.197 77.0978C105.197 75.4752 103.105 74.792 100.5 74.792C97.8952 74.792 95.8029 75.4752 95.8029 77.0978C95.8029 78.5496 97.4682 81.3251 99.6459 81.9229V84.613C98.4076 84.613 97.1693 84.5276 95.9737 84.3141C94.65 84.1006 93.5825 83.759 92.7712 83.2466C92.0026 82.7342 91.5756 82.1364 91.4475 81.2397C91.3621 80.6419 90.8498 80.2576 90.2947 80.343C89.7396 80.4284 89.3553 80.9835 89.4407 81.5386C89.6542 83.1185 90.5508 84.2714 91.7037 85.04C92.8566 85.7659 94.2657 86.1929 95.6748 86.4064C97.9379 86.7907 100.5 86.748 102.421 86.7053C102.891 86.7053 103.361 86.7053 103.745 86.7053C104.3 86.7053 104.77 86.2356 104.77 85.6378C104.77 85.04 104.3 84.5703 103.745 84.5703C103.275 84.5703 102.806 84.5703 102.293 84.5703C101.994 84.5703 101.696 84.5703 101.354 84.5703V81.9229Z" fill="#333333"/>
<path d="M14.6303 144.308H19.8397V140.379C27.91 140.336 33.5037 136.152 33.5037 128.765C33.5037 121.506 27.91 117.278 19.8397 117.15V114.076H14.6303V117.15C6.51731 117.278 0.966309 121.378 0.966309 128.765C0.966309 136.237 6.47461 140.379 14.6303 140.379V144.308ZM27.9954 128.765C27.9954 133.291 25.2199 135.554 19.8397 135.597V121.89C25.348 121.975 27.9954 124.794 27.9954 128.765ZM6.47461 128.765C6.47461 124.751 9.20741 121.975 14.6303 121.933V135.639C9.42091 135.554 6.47461 133.206 6.47461 128.765Z" fill="#333333"/>
<path d="M36.3219 134.444C36.3219 140.166 40.3784 144.435 46.698 144.435C53.0176 144.435 57.0741 140.166 57.0741 134.444C57.0741 128.722 53.0176 124.452 46.698 124.452C40.3784 124.495 36.3219 128.765 36.3219 134.444ZM41.5313 134.444C41.5313 131.156 43.7944 129.021 46.698 129.021C49.6443 129.021 51.9074 131.199 51.9074 134.444C51.9074 137.732 49.7297 139.909 46.698 139.909C43.709 139.909 41.5313 137.646 41.5313 134.444Z" fill="#333333"/>
<path d="M79.6624 124.964H73.5136L66.6816 134.401L74.1968 144.009H80.5591L72.3607 134.017L79.6624 124.964ZM61.6857 143.966H66.5535V124.964H61.6857V143.966Z" fill="#333333"/>
<path d="M97.1267 137.604C95.8884 138.97 94.3085 139.909 92.2162 139.909C89.3553 139.909 86.7079 137.817 86.7079 134.444C86.7079 131.113 89.2699 129.021 92.0027 129.021C93.7534 129.021 95.2906 129.491 96.7424 130.9L99.0055 127.057C97.2121 125.263 94.4793 124.495 91.3622 124.495C85.555 124.495 81.4985 128.935 81.4985 134.486C81.4985 140.507 85.6404 144.478 91.8319 144.478C94.9063 144.478 97.8099 143.325 99.3898 141.19L97.1267 137.604Z" fill="#333333"/>
<path d="M112.072 152.42H116.94V144.436H117.281C124.156 144.436 127.529 140.123 127.529 134.444C127.529 128.85 123.857 124.452 117.281 124.452H116.94V114.332H112.072V124.452H111.773C105.154 124.452 101.482 129.277 101.482 134.444C101.482 140.123 105.154 144.436 111.816 144.436H112.072V152.42ZM117.281 129.064C120.697 129.064 122.32 131.626 122.32 134.486C122.32 137.689 120.612 139.952 117.11 139.952H116.94V129.106H117.281V129.064ZM106.691 134.444C106.691 131.54 108.143 129.021 111.73 129.021H112.072V139.867H111.944C108.442 139.909 106.691 137.646 106.691 134.444Z" fill="#333333"/>
<path d="M130.945 134.444C130.945 140.166 135.002 144.435 141.321 144.435C147.641 144.435 151.697 140.166 151.697 134.444C151.697 128.722 147.641 124.452 141.321 124.452C135.002 124.495 130.945 128.765 130.945 134.444ZM136.154 134.444C136.154 131.156 138.418 129.021 141.321 129.021C144.267 129.021 146.531 131.199 146.531 134.444C146.531 137.732 144.353 139.909 141.321 139.909C138.332 139.909 136.154 137.646 136.154 134.444Z" fill="#333333"/>
<path d="M156.309 152.42H161.177V143.496C162.287 144.137 163.91 144.436 165.618 144.436C171.724 144.436 175.695 139.952 175.695 134.145C175.695 128.508 172.321 124.452 167.069 124.452C164.635 124.452 162.372 125.477 161.177 126.715V124.879H156.309V152.42ZM165.532 129.063C168.735 129.063 170.528 131.241 170.528 134.316C170.528 137.475 168.564 139.952 165.191 139.952C163.568 139.952 162.5 139.696 161.177 138.842V131.156C162.33 129.789 163.867 129.063 165.532 129.063Z" fill="#333333"/>
<path d="M178.001 148.407H182.527V143.966H196.02V148.407H200.589V139.44H197.429V124.922H183.381L183.082 129.491C182.826 133.803 181.758 137.646 180.434 139.44H178.043V148.407H178.001ZM187.779 131.455L187.907 129.491H192.561V139.44H185.516C186.327 138.244 187.395 135.469 187.779 131.455Z" fill="#333333"/>
</svg>
